<svg width="24" height="24" viewBox="0 0 24 24" fill="none" xmlns="http://www.w3.org/2000/svg">
<path d="M9 22H15C20 22 22 20 22 15V9C22 4 20 2 15 2H9C4 2 2 4 2 9V15C2 20 4 22 9 22Z" stroke="black" stroke-width="1.5" stroke-linecap="round" stroke-linejoin="round"/>
<path d="M15.5701 18.5016V14.6016" stroke="black" stroke-width="1.5" stroke-miterlimit="10" stroke-linecap="round" stroke-linejoin="round"/>
<path d="M15.5701 7.45V5.5" stroke="black" stroke-width="1.5" stroke-miterlimit="10" stroke-linecap="round" stroke-linejoin="round"/>
<path d="M15.57 12.6492C17.0059 12.6492 18.17 11.4852 18.17 10.0492C18.17 8.61328 17.0059 7.44922 15.57 7.44922C14.134 7.44922 12.97 8.61328 12.97 10.0492C12.97 11.4852 14.134 12.6492 15.57 12.6492Z" stroke="black" stroke-width="1.5" stroke-miterlimit="10" stroke-linecap="round" stroke-linejoin="round"/>
<path d="M8.43005 18.5008V16.5508" stroke="black" stroke-width="1.5" stroke-miterlimit="10" stroke-linecap="round" stroke-linejoin="round"/>
<path d="M8.43005 9.4V5.5" stroke="black" stroke-width="1.5" stroke-miterlimit="10" stroke-linecap="round" stroke-linejoin="round"/>
<path d="M8.42996 16.5516C9.8659 16.5516 11.03 15.3875 11.03 13.9516C11.03 12.5156 9.8659 11.3516 8.42996 11.3516C6.99402 11.3516 5.82996 12.5156 5.82996 13.9516C5.82996 15.3875 6.99402 16.5516 8.42996 16.5516Z" stroke="black" stroke-width="1.5" stroke-miterlimit="10" stroke-linecap="round" stroke-linejoin="round"/>
</svg>
