<svg width="262" height="46" viewBox="0 0 262 46" fill="none" xmlns="http://www.w3.org/2000/svg">
<rect x="261.941" y="22.9707" width="32.4853" height="32.4853" rx="16.2426" transform="rotate(135 261.941 22.9707)" fill="#D9D9D9"/>
<rect x="261.941" y="22.9707" width="32.4853" height="32.4853" rx="16.2426" transform="rotate(135 261.941 22.9707)" fill="url(#paint0_linear_940_4899)"/>
<g clip-path="url(#clip0_940_4899)">
<path d="M12.8145 36.0547C11.4316 35.9961 10.1895 35.873 9.08789 35.6855C7.98633 35.5098 6.91992 35.2227 5.88867 34.8242C4.86914 34.4141 4.00781 33.9043 3.30469 33.2949C2.61328 32.6738 2.0332 31.8828 1.56445 30.9219C1.10742 29.9609 0.826172 28.8477 0.720703 27.582C0.720703 27.3594 0.837891 27.2305 1.07227 27.1953C1.14258 27.2188 1.25977 27.2305 1.42383 27.2305C2.39648 27.2305 3.87305 27.207 5.85352 27.1602C7.83398 27.1133 9.31055 27.0898 10.2832 27.0898C10.5293 27.0898 10.7227 27.1719 10.8633 27.3359C11.0039 27.4883 11.1152 27.6816 11.1973 27.916C11.291 28.1387 11.3965 28.3672 11.5137 28.6016C11.6426 28.8242 11.8535 29.0176 12.1465 29.1816C12.4512 29.334 12.8379 29.4102 13.3066 29.4102C13.8809 29.4102 14.3848 29.252 14.8184 28.9355C15.2637 28.6074 15.4863 28.168 15.4863 27.6172C15.4863 27.2539 15.2988 26.9199 14.9238 26.6152C14.5488 26.3105 14.0508 26.0645 13.4297 25.877C12.8203 25.6777 12.2344 25.5137 11.6719 25.3848C11.1211 25.2441 10.5527 25.127 9.9668 25.0332C9.38086 24.9277 9.04102 24.8633 8.94727 24.8398C6.09961 24.0664 4.04883 23.1055 2.79492 21.957C1.55273 20.8086 0.931641 19.2383 0.931641 17.2461C0.931641 15.8398 1.18945 14.5801 1.70508 13.4668C2.2207 12.3418 2.89453 11.4277 3.72656 10.7246C4.55859 10.0098 5.54297 9.41797 6.67969 8.94922C7.81641 8.46875 8.96484 8.13477 10.125 7.94727C11.2852 7.74805 12.4863 7.64844 13.7285 7.64844C17.0215 7.64844 19.6465 8.25781 21.6035 9.47656C22.3184 10.1914 22.8398 10.7363 23.168 11.1113C23.5078 11.4746 23.8301 11.9023 24.1348 12.3945C24.4512 12.8867 24.668 13.373 24.7852 13.8535C24.9141 14.3223 25.002 14.9023 25.0488 15.5938L24.416 16.2266C22.0137 16.3203 19.3184 16.3672 16.3301 16.3672C15.9551 16.3672 15.6504 16.3262 15.416 16.2441C15.1934 16.1621 15.041 16.0566 14.959 15.9277C14.8887 15.7988 14.8125 15.6641 14.7305 15.5234C14.6602 15.3828 14.5898 15.248 14.5195 15.1191C14.4609 14.9902 14.3262 14.8848 14.1152 14.8027C13.916 14.7207 13.6465 14.6797 13.3066 14.6797C13.2129 14.6797 13.0605 14.6973 12.8496 14.7324C12.6504 14.7676 12.4102 14.8262 12.1289 14.9082C11.8594 14.9785 11.625 15.0957 11.4258 15.2598C11.2266 15.4121 11.127 15.5938 11.127 15.8047C11.127 16.0625 11.2559 16.2969 11.5137 16.5078C11.7832 16.7188 12.0645 16.8711 12.3574 16.9648C12.6504 17.0586 13.0137 17.1641 13.4473 17.2812C13.8809 17.3867 14.1504 17.457 14.2559 17.4922C16.8105 18.1367 18.334 18.5352 18.8262 18.6875C21.3926 19.4961 23.209 20.5566 24.2754 21.8691C25.2598 23.0879 25.752 24.6172 25.752 26.457C25.752 27.5703 25.6055 28.584 25.3125 29.498C25.0312 30.4121 24.6562 31.1855 24.1875 31.8184C23.7188 32.4512 23.1328 33.0137 22.4297 33.5059C21.7266 33.998 21.0117 34.3906 20.2852 34.6836C19.5703 34.9766 18.7559 35.2227 17.8418 35.4219C16.9277 35.6211 16.084 35.7617 15.3105 35.8438C14.5488 35.9375 13.7168 36.0078 12.8145 36.0547ZM50.3613 11.5508V33.1719C50.3613 33.418 50.3496 33.6172 50.3262 33.7695C50.3145 33.9102 50.2676 34.0449 50.1855 34.1738C50.1035 34.3027 49.9863 34.3672 49.834 34.3672H40.8691V33.9805C40.8457 33.957 40.752 33.9043 40.5879 33.8223C40.4355 33.7402 40.3418 33.6641 40.3066 33.5938V26.4922C40.3066 26.2344 40.2832 26.0879 40.2363 26.0527C40.2012 26.0176 40.0371 26 39.7441 26H38.5488C38.2676 26 37.9395 26.0234 37.5645 26.0703V33.6641C37.5176 33.875 37.4238 34.0098 37.2832 34.0684C37.1543 34.127 36.9551 34.1562 36.6855 34.1562H35.877C35.3262 34.1562 34.459 34.168 33.2754 34.1914C32.1035 34.2148 31.2129 34.2266 30.6035 34.2266H28.2832C27.7793 34.2266 27.5273 33.9453 27.5273 33.3828L27.6328 11.2344C27.6328 11.1758 27.6504 11.1289 27.6855 11.0938C27.7207 11.0469 27.791 10.9883 27.8965 10.918C28.002 10.8359 28.0605 10.7891 28.0723 10.7773H37.5293V18.3359H40.5879V10.6016H49.5527C49.834 10.6016 50.0391 10.666 50.168 10.7949C50.2969 10.9238 50.3613 11.1758 50.3613 11.5508ZM53.666 12.2891C53.666 11.5859 53.6953 11.1758 53.7539 11.0586C53.8594 10.8945 54.0293 10.8125 54.2637 10.8125H54.6855C54.873 10.8125 55.002 10.8242 55.0723 10.8477H55.9863C57.1699 10.8477 58.957 10.8184 61.3477 10.7598C63.75 10.7012 65.5488 10.6719 66.7441 10.6719H71.4199C71.7246 10.707 71.877 10.8594 71.877 11.1289V17C71.8652 17.0703 71.8418 17.1348 71.8066 17.1934C71.7832 17.2402 71.7598 17.2754 71.7363 17.2988C71.7246 17.3105 71.6719 17.3516 71.5781 17.4219C71.4844 17.4805 71.4199 17.5273 71.3848 17.5625H63.2285V19.7422H64.002C64.6816 19.7422 65.7188 19.7188 67.1133 19.6719C68.5078 19.625 69.5801 19.6016 70.3301 19.6016C70.6582 19.6016 70.8809 19.666 70.998 19.7949C71.1152 19.9238 71.1738 20.1055 71.1738 20.3398C71.1738 20.3984 71.1621 20.498 71.1387 20.6387C71.1152 20.7793 71.1035 20.8789 71.1035 20.9375V21.6055C71.1035 21.6523 71.1094 21.752 71.1211 21.9043C71.1328 22.0449 71.1387 22.168 71.1387 22.2734V22.7656C71.1387 23.0234 71.1504 23.2812 71.1738 23.5391C71.1973 23.7969 71.209 24.0195 71.209 24.207V24.6641C71.1504 24.8047 71.1035 24.8984 71.0684 24.9453C71.0332 24.9922 70.9746 25.0156 70.8926 25.0156V24.9805C70.459 24.9805 69.709 25.0098 68.6426 25.0684C67.5879 25.127 66.7441 25.1562 66.1113 25.1562H63.2988V27.4062C63.3926 27.4062 63.5332 27.4121 63.7207 27.4238C63.9082 27.4355 64.0488 27.4414 64.1426 27.4414C64.6699 27.4414 65.4492 27.4238 66.4805 27.3887C67.5117 27.3535 68.2559 27.3359 68.7129 27.3359H70.9629C71.5723 27.3359 71.959 27.4062 72.123 27.5469C72.1816 27.6172 72.2285 27.6875 72.2637 27.7578V33.3828C72.2637 33.6289 72.2168 33.8164 72.123 33.9453C72.0293 34.0742 71.8535 34.1445 71.5957 34.1562H54.1934L53.666 33.6992V12.2891ZM82.5293 22.6074C82.7402 21.752 82.9336 20.7852 83.1094 19.707C83.2969 18.6289 83.4492 17.668 83.5664 16.8242C83.6836 15.9805 83.8184 14.9492 83.9707 13.7305C84.1348 12.5 84.2695 11.5273 84.375 10.8125H94.5C94.5352 11.0938 94.5703 11.3984 94.6055 11.7266C94.6523 12.043 94.6934 12.3477 94.7285 12.6406C94.7637 12.9336 94.7988 13.2441 94.834 13.5723C94.8809 13.9004 94.9219 14.2168 94.957 14.5215C94.9922 14.8145 95.0273 15.125 95.0625 15.4531C95.0977 15.7813 95.1328 16.0918 95.168 16.3848C95.2148 16.6777 95.2559 16.9824 95.291 17.2988C95.3379 17.6152 95.3789 17.9141 95.4141 18.1953L96.1699 23.1699L97.5938 11.0762C97.6172 11.0059 97.6582 10.9473 97.7168 10.9004C97.7871 10.8535 97.8809 10.8184 97.998 10.7949C98.1152 10.7598 98.2266 10.7363 98.332 10.7246C98.4375 10.7012 98.5781 10.6895 98.7539 10.6895C98.9414 10.6777 99.0879 10.6719 99.1934 10.6719C99.2988 10.6719 99.4512 10.6719 99.6504 10.6719C99.8496 10.6719 99.9844 10.6719 100.055 10.6719C100.43 10.6719 100.969 10.6836 101.672 10.707C102.375 10.7305 102.914 10.7422 103.289 10.7422C103.336 10.7422 103.459 10.7363 103.658 10.7246C103.857 10.7129 104.016 10.707 104.133 10.707C104.578 10.707 104.836 10.7422 104.906 10.8125C104.965 10.8125 105.064 10.8066 105.205 10.7949C105.357 10.7832 105.469 10.7773 105.539 10.7773C105.645 10.7773 105.732 10.7832 105.803 10.7949C105.885 10.8066 105.967 10.8359 106.049 10.8828C106.131 10.918 106.201 10.9648 106.26 11.0234C106.33 11.082 106.389 11.1641 106.436 11.2695C106.494 11.375 106.535 11.5039 106.559 11.6562L101.443 34.0859H91.1602L89.209 22.8008L87.9961 32.1172C87.9844 32.1875 87.9492 32.3809 87.8906 32.6973C87.8438 33.0137 87.8027 33.2305 87.7676 33.3477C87.7441 33.4648 87.6973 33.623 87.627 33.8223C87.5566 34.0215 87.4688 34.1621 87.3633 34.2441C87.2578 34.3262 87.1289 34.3672 86.9766 34.3672C86.543 34.3672 85.8984 34.3496 85.043 34.3145C84.1875 34.2793 83.543 34.2617 83.1094 34.2617C82.3594 34.2617 81.375 34.2793 80.1562 34.3145C78.9375 34.3496 78.0469 34.3672 77.4844 34.3672H76.9219L72.2461 12.5176L72.3516 11.2695C72.3516 11.2461 72.3516 11.1992 72.3516 11.1289C72.3516 11.0586 72.3516 11.0176 72.3516 11.0059C72.3516 10.9824 72.3574 10.9473 72.3691 10.9004C72.3809 10.8418 72.3984 10.8008 72.4219 10.7773C72.4453 10.7539 72.4805 10.7246 72.5273 10.6895C72.5742 10.6543 72.6328 10.625 72.7031 10.6016C73.0312 10.6484 73.2773 10.6719 73.4414 10.6719H74.6016C74.8359 10.6719 74.9531 10.6484 74.9531 10.6016H75.5508C75.5977 10.6016 75.6797 10.5957 75.7969 10.584C75.9258 10.5723 76.043 10.5664 76.1484 10.5664H76.6406C76.7695 10.5664 76.957 10.5605 77.2031 10.5488C77.4492 10.5371 77.6367 10.5312 77.7656 10.5312H78.9258V10.6016H80.0859C80.4609 10.6016 80.7422 10.6602 80.9297 10.7773C81.1289 10.8828 81.2344 11.1055 81.2461 11.4453L82.5293 22.6074ZM112.518 35.457C112.189 35.457 111.809 35.4629 111.375 35.4746C110.941 35.498 110.607 35.5156 110.373 35.5273C110.139 35.5391 109.869 35.5332 109.564 35.5098C109.271 35.498 109.049 35.457 108.896 35.3867C108.744 35.3281 108.58 35.2344 108.404 35.1055C108.24 34.9766 108.117 34.8008 108.035 34.5781C107.965 34.3555 107.9 34.0801 107.842 33.752C107.795 33.4238 107.771 33.0312 107.771 32.5742C107.771 30.043 107.818 26.5918 107.912 22.2207C108.006 17.8379 108.053 14.6211 108.053 12.5703C108.053 10.0391 108.182 8.70312 108.439 8.5625H114.979C116.139 8.5625 117 8.63281 117.562 8.77344C118.137 8.90234 118.518 9.10156 118.705 9.37109C118.893 9.64062 118.986 10.0508 118.986 10.6016C118.986 10.7656 118.975 11.0879 118.951 11.5684C118.928 12.0371 118.916 12.4297 118.916 12.7461V13.5547C118.916 13.9297 118.898 14.4922 118.863 15.2422C118.828 15.9922 118.811 16.5547 118.811 16.9297V17.2812C118.834 17.3516 118.846 17.4453 118.846 17.5625H119.549C119.748 17.5625 120.053 17.5684 120.463 17.5801C120.873 17.5918 121.178 17.5977 121.377 17.5977C121.916 17.5977 122.314 17.5625 122.572 17.4922V10.1797C122.572 9.59375 122.602 9.17773 122.66 8.93164C122.719 8.67383 122.801 8.51562 122.906 8.45703C123.012 8.38672 123.205 8.35156 123.486 8.35156C123.639 8.35156 123.885 8.35742 124.225 8.36914C124.564 8.38086 124.811 8.38672 124.963 8.38672L126.264 8.33398C127.143 8.29883 127.928 8.28125 128.619 8.28125C131.807 8.28125 133.4 8.63281 133.4 9.33594C133.4 9.52344 133.406 9.79297 133.418 10.1445C133.43 10.4961 133.436 10.7656 133.436 10.9531C133.436 11.3633 133.43 11.9609 133.418 12.7461C133.406 13.5313 133.4 14.1289 133.4 14.5391C133.4 15.7578 133.418 17.5742 133.453 19.9883C133.488 22.4023 133.506 24.2188 133.506 25.4375C133.506 25.543 133.5 25.6777 133.488 25.8418C133.477 25.9941 133.471 26.0938 133.471 26.1406V26.9844C133.471 27.7344 133.482 28.2969 133.506 28.6719V29.0586C133.482 29.1055 133.471 29.1758 133.471 29.2695C133.471 29.8906 133.482 30.834 133.506 32.0996C133.529 33.3652 133.541 34.3086 133.541 34.9297C133.459 35.3516 132.334 35.5625 130.166 35.5625H122.854L122.326 34.8242V33.6641C122.326 32.8789 122.332 31.7188 122.344 30.1836C122.355 28.6484 122.361 27.4883 122.361 26.7031C122.361 26.4336 122.326 26.252 122.256 26.1582C122.197 26.0527 122.068 26 121.869 26H121.236C120.439 26 119.713 26.0469 119.057 26.1406C119.057 27.1133 119.045 28.5781 119.021 30.5352C118.998 32.4805 118.986 33.9453 118.986 34.9297C118.846 35.2812 117.381 35.457 114.592 35.457H112.518ZM136.881 34.3672V33.6992C136.881 31.6953 136.904 28.7363 136.951 24.8223C136.998 20.9082 137.021 17.9492 137.021 15.9453V8.66797H157.482V14.4336C157.482 14.4688 157.482 14.5566 157.482 14.6973C157.482 14.8379 157.482 14.9316 157.482 14.9785C157.482 15.0254 157.477 15.1133 157.465 15.2422C157.453 15.3594 157.43 15.4414 157.395 15.4883C157.371 15.5352 157.33 15.6055 157.271 15.6992C157.225 15.7813 157.166 15.8398 157.096 15.875C157.025 15.9102 156.932 15.9453 156.814 15.9805C156.697 16.0039 156.568 16.0156 156.428 16.0156H155.936C152.9 16.0156 150.135 15.9687 147.639 15.875C147.615 16.0625 147.574 16.3555 147.516 16.7539C147.469 17.1406 147.428 17.4863 147.393 17.791C147.369 18.084 147.357 18.3711 147.357 18.6523H155.725C156.076 18.6523 156.311 18.6992 156.428 18.793C156.545 18.8867 156.604 19.0391 156.604 19.25C156.604 19.3086 156.598 19.4023 156.586 19.5312C156.574 19.6602 156.568 19.7539 156.568 19.8125C156.568 20.375 156.586 21.207 156.621 22.3086C156.656 23.4102 156.674 24.2422 156.674 24.8047C156.639 25.0391 156.545 25.1562 156.393 25.1562C156.322 25.1562 156.264 25.1328 156.217 25.0859C152.514 25.2734 149.771 25.3672 147.99 25.3672H147.533V27.8984C148.576 27.8984 150.082 27.8516 152.051 27.7578C154.031 27.6641 155.514 27.6172 156.498 27.6172C157.271 27.6172 157.717 27.7812 157.834 28.1094V29.4453C157.834 30.0078 157.846 30.8398 157.869 31.9414C157.893 33.043 157.904 33.875 157.904 34.4375C157.904 35.0234 157.67 35.3164 157.201 35.3164C156.592 35.3164 155.654 35.3105 154.389 35.2988C153.123 35.2871 152.162 35.2812 151.506 35.2812C149.818 35.2812 147.404 35.3223 144.264 35.4043C141.123 35.498 138.85 35.5508 137.443 35.5625L136.951 35C136.904 34.6719 136.881 34.4609 136.881 34.3672ZM157.377 35C158.104 32.3164 158.906 29.5918 159.785 26.8262C160.664 24.0605 161.754 20.7559 163.055 16.9121C164.367 13.0566 165.264 10.3906 165.744 8.91406C165.885 8.67969 165.979 8.53906 166.025 8.49219H168.979C169.67 8.49219 170.689 8.48047 172.037 8.45703C173.385 8.43359 174.404 8.42188 175.096 8.42188H178.049C178.225 8.42188 178.371 8.42773 178.488 8.43945C178.605 8.43945 178.746 8.45117 178.91 8.47461C179.074 8.49805 179.203 8.5332 179.297 8.58008C179.402 8.62695 179.49 8.69727 179.561 8.79102C179.631 8.88477 179.666 8.99609 179.666 9.125L187.77 34.8066C187.77 35.041 187.682 35.1992 187.506 35.2812C187.342 35.375 187.025 35.4219 186.557 35.4219H184.939C184.471 35.4219 183.773 35.4277 182.848 35.4395C181.922 35.4512 181.225 35.457 180.756 35.457C180.615 35.457 180.328 35.4629 179.895 35.4746C179.473 35.498 179.115 35.5039 178.822 35.4922C178.529 35.4922 178.201 35.4746 177.838 35.4395C177.486 35.416 177.199 35.3516 176.977 35.2461C176.766 35.1523 176.631 35.0234 176.572 34.8594V33.6992C176.455 33.1133 176.25 32.5742 175.957 32.082C175.664 31.5898 175.354 31.3438 175.025 31.3438H168.979L168.064 35.0703C167.936 35.3516 167.279 35.4922 166.096 35.4922H164.689C164.186 35.4922 163.436 35.5098 162.439 35.5449C161.443 35.5801 160.693 35.5977 160.189 35.5977H159.697C159.51 35.5977 159.211 35.6035 158.801 35.6152C158.402 35.627 158.092 35.6328 157.869 35.6328C157.775 35.5391 157.611 35.3281 157.377 35ZM169.576 24.3301L170.068 25.1562H171.229C172.166 25.1562 173.021 25.1035 173.795 24.998C174.58 24.8809 174.973 24.6992 174.973 24.4531L172.705 14.3281C172.494 14.3281 172.207 14.7266 171.844 15.5234C171.492 16.3203 171.205 17.2227 170.982 18.2305L169.576 24.3301ZM188.877 9.19531C188.877 9.06641 188.947 8.95508 189.088 8.86133C189.24 8.75586 189.457 8.67969 189.738 8.63281C190.02 8.57422 190.301 8.52734 190.582 8.49219C190.863 8.45703 191.197 8.43359 191.584 8.42188C191.982 8.41016 192.311 8.4043 192.568 8.4043C192.826 8.4043 193.119 8.41016 193.447 8.42188C193.787 8.42188 193.986 8.42188 194.045 8.42188H196.014C196.4 8.42188 196.939 8.41016 197.631 8.38672C198.334 8.36328 198.85 8.35156 199.178 8.35156C204.768 8.35156 208.764 9.3125 211.166 11.2344L211.799 11.7969C211.998 11.9844 212.221 12.2305 212.467 12.5352C212.713 12.8281 213.012 13.2793 213.363 13.8887C213.727 14.4863 214.049 15.1367 214.33 15.8398C214.611 16.543 214.852 17.4102 215.051 18.4414C215.25 19.4727 215.35 20.5391 215.35 21.6406C215.35 23.3516 215.115 24.9512 214.646 26.4395C214.178 27.9277 213.533 29.2168 212.713 30.3066C211.904 31.3965 210.949 32.3398 209.848 33.1367C208.758 33.9219 207.574 34.5137 206.297 34.9121C205.02 35.2988 203.701 35.4922 202.342 35.4922H201.779C201.275 35.4922 200.525 35.4805 199.529 35.457C198.533 35.4336 197.783 35.4219 197.279 35.4219C194.338 35.4219 191.678 35.4688 189.299 35.5625C189.018 35 188.877 34.4844 188.877 34.0156V9.19531ZM199.213 29.375C199.916 29.375 200.549 29.2988 201.111 29.1465C201.674 28.9824 202.148 28.7715 202.535 28.5137C202.922 28.2559 203.262 27.9277 203.555 27.5293C203.848 27.1309 204.076 26.7207 204.24 26.2988C204.416 25.877 204.551 25.3965 204.645 24.8574C204.75 24.3066 204.82 23.791 204.855 23.3105C204.891 22.8184 204.908 22.2734 204.908 21.6758V20.5859C204.908 18.4297 204.48 16.8418 203.625 15.8223C202.77 14.791 201.275 14.2461 199.143 14.1875C199.084 14.3164 198.99 14.4922 198.861 14.7148C198.732 14.9375 198.639 15.1133 198.58 15.2422V16.0859C198.58 16.2617 198.574 16.7188 198.562 17.457C198.41 25.3086 198.627 29.2812 199.213 29.375Z" fill="black"/>
</g>
<defs>
<linearGradient id="paint0_linear_940_4899" x1="278.184" y1="22.9707" x2="278.184" y2="55.456" gradientUnits="userSpaceOnUse">
<stop/>
<stop offset="0.286458" stop-opacity="0.713542"/>
<stop offset="0.485093" stop-opacity="0.514907"/>
<stop offset="0.729167" stop-opacity="0.270833"/>
<stop offset="1" stop-color="white" stop-opacity="0"/>
</linearGradient>
<clipPath id="clip0_940_4899">
<rect width="216" height="40" fill="white" transform="translate(0 3)"/>
</clipPath>
</defs>
</svg>
